# xmcd CD database file
#
# Track frame offsets:
#	150
#	4370
#	21405
#	38557
#	56387
#	72757
#	89517
#	109015
#	126090
#	142392
#	163777
#	186652
#	199332
#	222375
#
# Disc length: 3369 seconds
#
# Revision: 11
# Processed by: cddbd v1.5.1PL2 Copyright (c) Steve Scherf et al.
# Submitted via: CDex 1.51
#
DISCID=d80d270e
DTITLE=Scatman John - Scatman's World
DYEAR=1997
DGENRE=Club
TTITLE0=Welcome To Scatland
TTITLE1=Scatman's World
TTITLE2=Only You
TTITLE3=Quiet Desperation
TTITLE4=Scatman (Ski-Ba-Bop-Ba-Dop-Bop)
TTITLE5=Sing Now!
TTITLE6=Popstar
TTITLE7=Time (Take Your Time)
TTITLE8=Mambo Jambo
TTITLE9=Everything Changes
TTITLE10=Song Of Scatland
TTITLE11=Hi, Louis
TTITLE12=Scatman (Game Over Jazz)
TTITLE13=Scatman (Spike Mix)
EXTD=YEAR: 1997
EXTT0=
EXTT1=
EXTT2=
EXTT3=
EXTT4=
EXTT5=
EXTT6=
EXTT7=
EXTT8=
EXTT9=
EXTT10=
EXTT11=
EXTT12=
EXTT13=
PLAYORDER=
